<svg width="117" height="117" viewBox="0 0 117 117" fill="none" xmlns="http://www.w3.org/2000/svg">
<rect x="0.22168" y="0.230049" width="116.364" height="116.364" fill="url(#paint0_linear_23_183)"/>
<path d="M48.8023 73.8598C48.8023 73.8598 46.0065 75.5073 50.792 76.0648C56.5895 76.735 59.5525 76.6389 65.9414 75.4136C65.9414 75.4136 67.6211 76.4808 69.967 77.4052C55.6447 83.6252 37.553 77.0449 48.8023 73.8598Z" fill="white"/>
<path d="M47.0521 65.7431C47.0521 65.7431 43.9164 68.0952 48.7054 68.5971C54.8985 69.2445 59.7893 69.2975 68.2523 67.6462C68.2523 67.6462 69.4228 68.8487 71.2634 69.5063C53.947 74.6373 34.6597 69.9109 47.0521 65.7431Z" fill="white"/>
<path d="M61.8062 51.9744C65.3352 56.0915 60.879 59.7964 60.879 59.7964C60.879 59.7964 69.8397 55.109 65.7244 49.2393C61.8809 43.7654 58.9334 41.0456 74.8898 31.6682C74.8898 31.6682 49.8436 38.007 61.8062 51.9744Z" fill="white"/>
<path d="M80.7485 79.8634C80.7485 79.8634 82.8174 81.5909 78.4699 82.9273C70.2029 85.465 44.0619 86.2313 36.8 83.0284C34.1896 81.8776 39.0849 80.2806 40.6248 79.9455C42.2308 79.5926 43.1485 79.6584 43.1485 79.6584C40.2454 77.586 24.3841 83.7275 35.0917 85.4864C64.293 90.2851 88.3229 83.3255 80.7485 79.8634Z" fill="white"/>
<path d="M50.1466 57.3332C50.1466 57.3332 36.8496 60.5336 45.4378 61.6957C49.064 62.1877 56.2928 62.0764 63.0262 61.5047C68.5291 61.0343 74.0547 60.0342 74.0547 60.0342C74.0547 60.0342 72.1143 60.8762 70.7104 61.8476C57.2076 65.4461 31.1225 63.772 38.6321 60.0911C44.9829 56.9803 50.1466 57.3332 50.1466 57.3332Z" fill="white"/>
<path d="M74.0002 70.8439C87.7265 63.6162 81.38 56.6704 76.9503 57.6062C75.8645 57.8352 75.3804 58.0336 75.3804 58.0336C75.3804 58.0336 75.7835 57.3938 76.5533 57.1168C85.3168 53.9948 92.0565 66.3248 73.7244 71.2082C73.7244 71.2084 73.9367 71.0159 74.0002 70.8439Z" fill="white"/>
<path d="M65.7245 16.5262C65.7245 16.5262 73.3263 24.2319 58.5145 36.0811C46.6369 45.5862 55.806 51.0057 58.5096 57.1977C51.5764 50.859 46.4884 45.279 49.9018 40.0857C54.9119 32.4623 68.7917 28.7662 65.7245 16.5262Z" fill="white"/>
<path d="M51.4955 90.4293C64.6711 91.284 84.9036 89.9552 85.3827 83.6378C85.3827 83.6378 84.4617 86.0327 74.4939 87.9346C63.2483 90.0791 49.3784 89.8287 41.1521 88.4543C41.1523 88.4541 42.8361 89.8666 51.4955 90.4293Z" fill="white"/>
<defs>
<linearGradient id="paint0_linear_23_183" x1="11.6748" y1="6.42452" x2="123.428" y2="128.454" gradientUnits="userSpaceOnUse">
<stop stop-color="#180A7E"/>
<stop offset="1" stop-color="#0C091C"/>
</linearGradient>
</defs>
</svg>
