<svg width="157" height="48" viewBox="0 0 157 48" fill="none" xmlns="http://www.w3.org/2000/svg">
<path d="M13.5989 39.4439C11.8709 39.4439 10.4189 39.2639 9.24294 38.9039C8.06694 38.5439 7.17894 37.8959 6.57894 36.9599C5.97894 36.0479 5.71494 34.7519 5.78694 33.0719L5.89494 29.5799C5.89494 28.5719 5.77494 27.7919 5.53494 27.2399C5.31894 26.6879 4.98294 26.3159 4.52694 26.1239C4.09494 25.9079 3.55494 25.7999 2.90694 25.7999H2.00694V23.4239H2.87094C3.56694 23.4239 4.14294 23.3039 4.59894 23.0639C5.05494 22.8239 5.39094 22.4399 5.60694 21.9119C5.84694 21.3839 5.96694 20.6879 5.96694 19.8239L5.89494 17.0879C5.89494 15.6959 6.15894 14.5319 6.68694 13.5959C7.21494 12.6599 7.98294 11.9639 8.99094 11.5079C9.99894 11.0279 11.2229 10.7879 12.6629 10.7879H15.0749V13.1999H12.0149C10.9589 13.1999 10.1669 13.4999 9.63894 14.0999C9.13494 14.6759 8.88294 15.5399 8.88294 16.6919L8.95494 19.3919C8.95494 20.2319 8.83494 20.9879 8.59494 21.6599C8.37894 22.3319 8.04294 22.9199 7.58694 23.4239C7.13094 23.9039 6.57894 24.2999 5.93094 24.6119C6.57894 24.8519 7.11894 25.2239 7.55094 25.7279C7.98294 26.2079 8.30694 26.8199 8.52294 27.5639C8.76294 28.2839 8.88294 29.1359 8.88294 30.1199L8.77494 33.0359C8.77494 34.0199 8.91894 34.8119 9.20694 35.4119C9.49494 35.9879 9.95094 36.3959 10.5749 36.6359C11.2229 36.8999 12.0509 37.0319 13.0589 37.0319H15.0389V39.4439H13.5989ZM21.6629 39.4439H20.2229V37.0319H22.2029C23.2349 37.0319 24.0629 36.8999 24.6869 36.6359C25.3109 36.3959 25.7669 35.9879 26.0549 35.4119C26.3429 34.8119 26.4869 34.0199 26.4869 33.0359L26.3789 30.1199C26.3789 29.1359 26.4869 28.2839 26.7029 27.5639C26.9429 26.8199 27.2789 26.2079 27.7109 25.7279C28.1669 25.2239 28.7069 24.8519 29.3309 24.6119C28.6829 24.2999 28.1309 23.9039 27.6749 23.4239C27.2189 22.9199 26.8709 22.3319 26.6309 21.6599C26.4149 20.9879 26.3069 20.2319 26.3069 19.3919L26.3789 16.6919C26.3789 15.5399 26.1149 14.6759 25.5869 14.0999C25.0829 13.4999 24.3029 13.1999 23.2469 13.1999H20.1869V10.7879H22.5989C24.0629 10.7879 25.2869 11.0279 26.2709 11.5079C27.2789 11.9639 28.0469 12.6599 28.5749 13.5959C29.1029 14.5319 29.3669 15.6959 29.3669 17.0879L29.2949 19.8239C29.2949 20.6879 29.4029 21.3839 29.6189 21.9119C29.8589 22.4399 30.2069 22.8239 30.6629 23.0639C31.1429 23.3039 31.7189 23.4239 32.3909 23.4239H33.2549V25.7999H32.3549C31.7309 25.7999 31.1909 25.9079 30.7349 26.1239C30.2789 26.3159 29.9309 26.6879 29.6909 27.2399C29.4749 27.7919 29.3669 28.5719 29.3669 29.5799L29.4749 33.0719C29.5469 34.7519 29.2829 36.0479 28.6829 36.9599C28.1069 37.8959 27.2189 38.5439 26.0189 38.9039C24.8429 39.2639 23.3909 39.4439 21.6629 39.4439Z" fill="#6360FF"/>
<path d="M59.3107 38.0638C56.0227 38.0638 53.4427 36.9598 51.5707 34.7518C49.6987 32.5198 48.7627 29.2918 48.7627 25.0678C48.7627 22.9558 49.0027 21.0958 49.4827 19.4878C49.9627 17.8798 50.6587 16.5238 51.5707 15.4198C52.4827 14.3158 53.5867 13.4878 54.8827 12.9358C56.2027 12.3598 57.6787 12.0718 59.3107 12.0718C61.4947 12.0718 63.3187 12.5518 64.7827 13.5118C66.2707 14.4718 67.4347 15.8878 68.2747 17.7598L64.8547 19.6318C64.4227 18.4318 63.7507 17.4838 62.8387 16.7878C61.9507 16.0678 60.7747 15.7078 59.3107 15.7078C57.3667 15.7078 55.8427 16.3678 54.7387 17.6878C53.6347 19.0078 53.0827 20.8318 53.0827 23.1598V26.9758C53.0827 29.3038 53.6347 31.1278 54.7387 32.4478C55.8427 33.7678 57.3667 34.4278 59.3107 34.4278C60.8227 34.4278 62.0467 34.0438 62.9827 33.2758C63.9427 32.4838 64.6507 31.4758 65.1067 30.2518L68.3827 32.2318C67.5427 34.0558 66.3667 35.4838 64.8547 36.5158C63.3427 37.5478 61.4947 38.0638 59.3107 38.0638ZM79.7511 38.0638C78.4551 38.0638 77.2671 37.8358 76.1871 37.3798C75.1311 36.9238 74.2311 36.2758 73.4871 35.4358C72.7431 34.5718 72.1671 33.5398 71.7591 32.3398C71.3511 31.1158 71.1471 29.7598 71.1471 28.2718C71.1471 26.7838 71.3511 25.4398 71.7591 24.2398C72.1671 23.0158 72.7431 21.9838 73.4871 21.1438C74.2311 20.2798 75.1311 19.6198 76.1871 19.1638C77.2671 18.7078 78.4551 18.4798 79.7511 18.4798C81.0471 18.4798 82.2231 18.7078 83.2791 19.1638C84.3591 19.6198 85.2711 20.2798 86.0151 21.1438C86.7591 21.9838 87.3351 23.0158 87.7431 24.2398C88.1511 25.4398 88.3551 26.7838 88.3551 28.2718C88.3551 29.7598 88.1511 31.1158 87.7431 32.3398C87.3351 33.5398 86.7591 34.5718 86.0151 35.4358C85.2711 36.2758 84.3591 36.9238 83.2791 37.3798C82.2231 37.8358 81.0471 38.0638 79.7511 38.0638ZM79.7511 34.8238C81.0951 34.8238 82.1751 34.4158 82.9911 33.5998C83.8071 32.7598 84.2151 31.5118 84.2151 29.8558V26.6878C84.2151 25.0318 83.8071 23.7958 82.9911 22.9798C82.1751 22.1398 81.0951 21.7198 79.7511 21.7198C78.4071 21.7198 77.3271 22.1398 76.5111 22.9798C75.6951 23.7958 75.2871 25.0318 75.2871 26.6878V29.8558C75.2871 31.5118 75.6951 32.7598 76.5111 33.5998C77.3271 34.4158 78.4071 34.8238 79.7511 34.8238ZM104.499 34.5358H104.319C103.911 35.6398 103.239 36.5038 102.303 37.1278C101.391 37.7518 100.311 38.0638 99.0634 38.0638C96.6874 38.0638 94.8514 37.2118 93.5554 35.5078C92.2594 33.7798 91.6114 31.3678 91.6114 28.2718C91.6114 25.1758 92.2594 22.7758 93.5554 21.0718C94.8514 19.3438 96.6874 18.4798 99.0634 18.4798C100.311 18.4798 101.391 18.7918 102.303 19.4158C103.239 20.0158 103.911 20.8798 104.319 22.0078H104.499V10.9918H108.423V37.6318H104.499V34.5358ZM100.251 34.6798C101.451 34.6798 102.459 34.3918 103.275 33.8158C104.091 33.2158 104.499 32.4358 104.499 31.4758V25.0678C104.499 24.1078 104.091 23.3398 103.275 22.7638C102.459 22.1638 101.451 21.8638 100.251 21.8638C98.8834 21.8638 97.7914 22.3078 96.9754 23.1958C96.1594 24.0598 95.7514 25.2118 95.7514 26.6518V29.8918C95.7514 31.3318 96.1594 32.4958 96.9754 33.3838C97.7914 34.2478 98.8834 34.6798 100.251 34.6798ZM121.376 38.0638C120.032 38.0638 118.832 37.8358 117.776 37.3798C116.72 36.9238 115.82 36.2758 115.076 35.4358C114.332 34.5718 113.756 33.5398 113.348 32.3398C112.964 31.1158 112.772 29.7598 112.772 28.2718C112.772 26.7838 112.964 25.4398 113.348 24.2398C113.756 23.0158 114.332 21.9838 115.076 21.1438C115.82 20.2798 116.72 19.6198 117.776 19.1638C118.832 18.7078 120.032 18.4798 121.376 18.4798C122.744 18.4798 123.944 18.7198 124.976 19.1998C126.032 19.6798 126.908 20.3518 127.604 21.2158C128.3 22.0558 128.816 23.0398 129.152 24.1678C129.512 25.2958 129.692 26.5078 129.692 27.8038V29.2798H116.84V29.8918C116.84 31.3318 117.26 32.5198 118.1 33.4558C118.964 34.3678 120.188 34.8238 121.772 34.8238C122.924 34.8238 123.896 34.5718 124.688 34.0678C125.48 33.5638 126.152 32.8798 126.704 32.0158L129.008 34.2838C128.312 35.4358 127.304 36.3598 125.984 37.0558C124.664 37.7278 123.128 38.0638 121.376 38.0638ZM121.376 21.5398C120.704 21.5398 120.08 21.6598 119.504 21.8998C118.952 22.1398 118.472 22.4758 118.064 22.9078C117.68 23.3398 117.38 23.8558 117.164 24.4558C116.948 25.0558 116.84 25.7158 116.84 26.4358V26.6878H125.552V26.3278C125.552 24.8878 125.18 23.7358 124.436 22.8718C123.692 21.9838 122.672 21.5398 121.376 21.5398ZM138.176 12.5038V27.9838C138.176 30.1198 138.584 31.7278 139.4 32.8078C140.216 33.8878 141.608 34.4278 143.576 34.4278C145.544 34.4278 146.936 33.8878 147.752 32.8078C148.568 31.7278 148.976 30.1198 148.976 27.9838V12.5038H152.972V27.3358C152.972 29.1838 152.804 30.7798 152.468 32.1238C152.132 33.4678 151.592 34.5838 150.848 35.4718C150.104 36.3358 149.132 36.9838 147.932 37.4158C146.756 37.8478 145.304 38.0638 143.576 38.0638C141.848 38.0638 140.384 37.8478 139.184 37.4158C138.008 36.9838 137.048 36.3358 136.304 35.4718C135.56 34.5838 135.02 33.4678 134.684 32.1238C134.348 30.7798 134.18 29.1838 134.18 27.3358V12.5038H138.176Z" fill="#BBB6E1"/>
</svg>
